<?xml version="1.0" standalone="no"?>
<!DOCTYPE svg PUBLIC "-//W3C//DTD SVG 20010904//EN"
 "http://www.w3.org/TR/2001/REC-SVG-20010904/DTD/svg10.dtd">
<svg version="1.0" xmlns="http://www.w3.org/2000/svg"
 width="512.000000pt" height="512.000000pt" viewBox="0 0 512.000000 512.000000"
 preserveAspectRatio="xMidYMid meet">
<metadata>
Created by potrace 1.15, written by Peter Selinger 2001-2017
</metadata>
<g transform="translate(0.000000,512.000000) scale(0.100000,-0.100000)"
fill="#000000" stroke="none">
<path d="M2395 5064 c-150 -15 -246 -28 -353 -50 -952 -193 -1714 -942 -1927
-1894 -45 -199 -59 -331 -59 -560 0 -229 14 -361 59 -560 190 -849 815 -1540
1640 -1816 277 -93 498 -128 805 -128 307 0 528 35 805 128 903 302 1542 1078
1681 2041 24 165 24 505 0 670 -81 563 -323 1053 -711 1440 -382 383 -863 624
-1410 706 -124 18 -438 32 -530 23z m475 -439 c446 -68 847 -271 1166 -589
427 -428 654 -1036 606 -1623 -43 -521 -248 -970 -607 -1328 -292 -293 -654
-488 -1058 -570 -689 -140 -1396 73 -1893 569 -172 173 -293 343 -399 561
-148 303 -209 573 -209 915 0 342 61 612 209 915 205 423 537 755 960 960 245
119 454 177 760 209 78 8 362 -4 465 -19z"/>
<path d="M3060 2973 c-223 -263 -503 -594 -624 -736 l-219 -259 -274 274 -273
273 -160 -160 c-88 -88 -160 -163 -160 -167 0 -4 195 -208 432 -453 l433 -445
47 48 c61 62 1528 1793 1528 1803 0 9 -310 299 -320 299 -3 0 -188 -215 -410
-477z"/>
</g>
</svg>
